<svg width="249" height="250" viewBox="0 0 249 250" fill="none" xmlns="http://www.w3.org/2000/svg">
<path d="M131.413 88.5187L125.498 0.932617H123.502L117.587 88.5187L80.4314 8.98395L78.5707 9.70479L104.695 93.5132L41.3168 32.7714L39.8422 34.1158L94.4771 102.828L13.4366 69.0824L12.5471 70.8687L88.3143 115.204L0.55606 113.013L0.371943 115L87.0386 128.971L4.41486 158.63L4.96094 160.549L90.8222 142.27L24.4918 199.772L25.6943 201.365L99.1543 153.303L58.0754 230.884L59.772 231.935L110.909 160.581L100.63 247.763L102.592 248.13L124.5 163.122L146.408 248.13L148.37 247.763L138.091 160.581L189.228 231.935L190.925 230.884L149.846 153.303L223.306 201.365L224.508 199.772L158.178 142.27L244.039 160.549L244.585 158.63L161.961 128.971L248.628 115L248.444 113.013L160.686 115.204L236.453 70.8687L235.563 69.0824L154.523 102.828L209.158 34.1158L207.683 32.7714L144.305 93.5132L170.429 9.70479L168.569 8.98395L131.413 88.5187Z" fill="#353DED" stroke="black" stroke-width="2"/>
<path d="M113.752 97.7551L124.5 95.7458L135.248 97.7551L144.545 103.511L151.135 112.237L154.127 122.755L153.118 133.643L148.244 143.431L140.164 150.798L129.967 154.748H119.033L108.836 150.798L100.756 143.431L95.8817 133.643L94.8727 122.755L97.8651 112.237L104.455 103.511L113.752 97.7551Z" fill="#353DED" stroke="white" stroke-width="35"/>
</svg>
