<svg width="863" height="249" viewBox="0 0 863 249" fill="none" xmlns="http://www.w3.org/2000/svg">
<path d="M31.1 161.8C27.0333 161.8 23.5 160.967 20.5 159.3C17.5 157.633 15.3 156.1 13.9 154.7C13.2333 154.033 12.6667 153.533 12.2 153.2C11.7333 152.867 11.3 152.7 10.9 152.7C9.83333 152.7 8.83333 153.633 7.9 155.5C6.96667 157.3 6.23333 159.133 5.7 161H3.4L11.4 129.4H13.7C13.3667 131.4 13.2 133.167 13.2 134.7C13.2 138.9 14.0333 142.833 15.7 146.5C17.4333 150.167 19.7333 153.1 22.6 155.3C25.4667 157.5 28.5667 158.6 31.9 158.6C37.5 158.6 41.7667 157.433 44.7 155.1C47.6333 152.767 49.1 149.333 49.1 144.8C49.1 142.133 48.4333 139.967 47.1 138.3C45.7667 136.567 43.7333 134.867 41 133.2L29.4 126.1C25.3333 123.7 22.3667 121.167 20.5 118.5C18.6333 115.833 17.7 112.333 17.7 108C17.7 101 19.7 95.7667 23.7 92.3C27.7667 88.7667 33.0667 87 39.6 87C42 87 44.3667 87.6333 46.7 88.9C49.1 90.1667 51.0333 91.4667 52.5 92.8C53.1667 93.4 53.7 93.8333 54.1 94.1C54.5 94.3 54.9333 94.4 55.4 94.4C56.5333 94.4 57.5667 93.6667 58.5 92.2C59.4333 90.7333 60.1 89.2667 60.5 87.8H62.8L57 113.8H54.7C54.9 110.6 54.3 107.133 52.9 103.4C51.5667 99.6667 49.6333 96.5333 47.1 94C44.5667 91.4667 41.7667 90.2 38.7 90.2C35.3 90.2 32.4 90.8333 30 92.1C27.6667 93.3667 25.9333 95.0333 24.8 97.1C23.6667 99.1 23.1 101.233 23.1 103.5C23.1 106.633 24 109.133 25.8 111C27.6667 112.867 30.1667 114.7 33.3 116.5L42.7 122C45.7667 123.867 48.1667 125.567 49.9 127.1C51.7 128.567 53.0667 130.367 54 132.5C55 134.567 55.5 137.133 55.5 140.2C55.5 146.867 53.3667 152.133 49.1 156C44.8333 159.867 38.8333 161.8 31.1 161.8ZM61.8117 156.8H69.4117C71.2117 156.8 72.3451 155.9 72.8117 154.1L88.9117 94.7C89.0451 94.1667 89.1117 93.7667 89.1117 93.5C89.1117 92.5 88.4117 92 87.0117 92H79.4117L80.2117 88.8H135.412L130.812 111.6H128.312C128.378 111.333 128.445 110.8 128.512 110C128.578 109.133 128.612 108.067 128.612 106.8C128.612 101.2 127.712 97.3333 125.912 95.2C124.112 93.0667 121.412 92 117.812 92H101.412C99.6117 92 98.4784 92.9 98.0117 94.7L90.7117 121.6H101.512C104.112 121.6 106.212 120.9 107.812 119.5C109.412 118.033 110.578 116.333 111.312 114.4C112.112 112.467 112.878 110.133 113.612 107.4H116.112L107.512 139.8H105.012C105.678 136.867 106.012 134.367 106.012 132.3C106.012 129.967 105.545 128.133 104.612 126.8C103.745 125.467 102.212 124.8 100.012 124.8H89.9117L81.9117 154.1C81.7784 154.633 81.7117 155 81.7117 155.2C81.7117 156.267 82.4117 156.8 83.8117 156.8H102.412C104.145 156.8 106.178 156.4 108.512 155.6C110.845 154.733 112.945 153.4 114.812 151.6C116.678 149.733 118.378 147.467 119.912 144.8C121.512 142.067 122.778 139.6 123.712 137.4C124.645 135.2 125.212 133.8 125.412 133.2H127.812L119.412 160H61.0117L61.8117 156.8ZM168.131 161.8C162.998 161.8 158.698 160.933 155.231 159.2C151.831 157.467 149.265 155.133 147.531 152.2C145.865 149.267 145.031 146 145.031 142.4C145.031 140.8 145.331 138.733 145.931 136.2L157.131 94.7C157.265 94.1667 157.331 93.8 157.331 93.6C157.331 92.5333 156.631 92 155.231 92H147.631L148.431 88.8H178.031L177.231 92H169.631C168.698 92 167.965 92.2333 167.431 92.7C166.898 93.1 166.498 93.7667 166.231 94.7L154.331 138.9C153.731 141.433 153.431 143.333 153.431 144.6C153.431 149 154.831 152.433 157.631 154.9C160.498 157.367 164.265 158.6 168.931 158.6C174.931 158.6 179.731 156.833 183.331 153.3C186.931 149.767 189.431 145.4 190.831 140.2L201.531 101.2C201.931 99.6 202.131 98.2 202.131 97C202.131 95.6 201.731 94.4333 200.931 93.5C200.198 92.5 198.898 92 197.031 92H192.231L193.031 88.8H220.031L219.231 92H214.431C212.365 92 210.498 92.9 208.831 94.7C207.231 96.4333 206.065 98.6667 205.331 101.4L194.931 139.2C192.998 146.267 189.965 151.8 185.831 155.8C181.765 159.8 175.865 161.8 168.131 161.8Z" fill="#161616"/>
<path d="M236.752 96.7551L247.5 94.7458L258.248 96.7551L267.545 102.511L274.135 111.237L277.127 121.755L276.118 132.643L271.244 142.431L263.164 149.798L252.967 153.748H242.033L231.836 149.798L223.756 142.431L218.882 132.643L217.873 121.755L220.865 111.237L227.455 102.511L236.752 96.7551Z" fill="#353DED" stroke="white" stroke-width="35"/>
<path d="M231.8 156.8H239.4C241.2 156.8 242.333 155.9 242.8 154.1L258.9 94.7C259.033 94.1667 259.1 93.8 259.1 93.6C259.1 92.5333 258.4 92 257 92H249.4L250.2 88.8H279.8L279 92H271.4C269.667 92 268.533 92.9 268 94.7L260.7 121.6H291.6L298.9 94.7C299.033 94.1667 299.1 93.8 299.1 93.6C299.1 92.5333 298.4 92 297 92H289.4L290.2 88.8H319.8L319 92H311.4C309.667 92 308.533 92.9 308 94.7L291.9 154.1C291.767 154.633 291.7 155 291.7 155.2C291.7 156.267 292.4 156.8 293.8 156.8H301.4L300.6 160H271L271.8 156.8H279.4C281.2 156.8 282.333 155.9 282.8 154.1L290.8 124.8H259.9L251.9 154.1C251.767 154.633 251.7 155 251.7 155.2C251.7 156.267 252.4 156.8 253.8 156.8H261.4L260.6 160H231L231.8 156.8ZM342.38 161.8C338.114 161.8 334.38 160.6 331.18 158.2C327.98 155.8 325.514 152.6 323.78 148.6C322.047 144.533 321.18 140.067 321.18 135.2C321.18 126.533 323.047 118.5 326.78 111.1C330.514 103.7 335.347 97.8333 341.28 93.5C347.214 89.1667 353.247 87 359.38 87C363.647 87 367.38 88.2333 370.58 90.7C373.78 93.1 376.247 96.3333 377.98 100.4C379.714 104.467 380.58 108.933 380.58 113.8C380.58 122.467 378.714 130.5 374.98 137.9C371.247 145.233 366.414 151.067 360.48 155.4C354.547 159.667 348.514 161.8 342.38 161.8ZM343.18 158.6C348.847 158.6 353.58 156.267 357.38 151.6C361.247 146.933 364.314 141.467 366.58 135.2C368.38 130.133 369.547 125.2 370.08 120.4C370.68 115.6 370.98 111.467 370.98 108C370.98 102.2 369.88 97.8 367.68 94.8C365.547 91.7333 362.514 90.2 358.58 90.2C352.914 90.2 348.147 92.5333 344.28 97.2C340.48 101.867 337.447 107.333 335.18 113.6C333.38 118.667 332.18 123.6 331.58 128.4C331.047 133.2 330.78 137.333 330.78 140.8C330.78 146.6 331.847 151.033 333.98 154.1C336.18 157.1 339.247 158.6 343.18 158.6ZM437.577 161.2C434.91 161.2 432.71 160.5 430.977 159.1C429.243 157.633 428.377 155.233 428.377 151.9C428.377 150.367 428.51 148.833 428.777 147.3C429.11 145.767 429.443 144.333 429.777 143C430.11 141.667 430.31 140.8 430.377 140.4C431.443 136.733 431.977 134.033 431.977 132.3C431.977 129.7 431.277 127.733 429.877 126.4C428.477 125.067 426.643 124.4 424.377 124.4H410.877L402.877 154.1C402.81 154.367 402.777 154.733 402.777 155.2C402.777 156.267 403.443 156.8 404.777 156.8H414.777L413.977 160H381.977L382.777 156.8H390.377C392.177 156.8 393.31 155.9 393.777 154.1L409.877 94.7C410.01 94.1667 410.077 93.7667 410.077 93.5C410.077 92.5 409.377 92 407.977 92H400.377L401.177 88.8H432.277C437.943 88.8 442.343 90.1667 445.477 92.9C448.61 95.6333 450.177 99.6667 450.177 105C450.177 107.8 449.277 110.5 447.477 113.1C445.677 115.633 443.277 117.8 440.277 119.6C437.343 121.333 434.243 122.5 430.977 123.1L430.877 123.5C436.943 126.433 439.977 131.267 439.977 138C439.977 139.733 439.577 142.467 438.777 146.2C438.11 149.4 437.777 151.6 437.777 152.8C437.777 153.733 437.977 154.5 438.377 155.1C438.843 155.7 439.577 156 440.577 156C443.043 156 444.977 154.8 446.377 152.4C447.777 150 448.943 147.133 449.877 143.8L452.377 144.5C451.51 147.5 450.61 150.067 449.677 152.2C448.81 154.333 447.377 156.367 445.377 158.3C443.377 160.233 440.777 161.2 437.577 161.2ZM423.977 121.2C429.043 121.2 433.077 119.567 436.077 116.3C439.077 113.033 440.577 108.467 440.577 102.6C440.577 99.0667 439.71 96.4333 437.977 94.7C436.243 92.9 433.71 92 430.377 92H422.377C420.577 92 419.443 92.9 418.977 94.7L411.777 121.2H423.977ZM503.149 82.6L513.749 70.3C514.616 69.3 515.416 68.6 516.149 68.2C516.883 67.8 517.683 67.6 518.549 67.6C520.416 67.6 521.349 68.5667 521.349 70.5C521.349 72.3 520.283 73.8333 518.149 75.1L504.349 83.8L503.149 82.6ZM485.349 161.8C481.083 161.8 477.349 160.6 474.149 158.2C470.949 155.8 468.483 152.6 466.749 148.6C465.016 144.533 464.149 140.067 464.149 135.2C464.149 126.533 466.016 118.5 469.749 111.1C473.483 103.7 478.316 97.8333 484.249 93.5C490.183 89.1667 496.216 87 502.349 87C506.616 87 510.349 88.2333 513.549 90.7C516.749 93.1 519.216 96.3333 520.949 100.4C522.683 104.467 523.549 108.933 523.549 113.8C523.549 122.467 521.683 130.5 517.949 137.9C514.216 145.233 509.383 151.067 503.449 155.4C497.516 159.667 491.483 161.8 485.349 161.8ZM486.149 158.6C491.816 158.6 496.549 156.267 500.349 151.6C504.216 146.933 507.283 141.467 509.549 135.2C511.349 130.133 512.516 125.2 513.049 120.4C513.649 115.6 513.949 111.467 513.949 108C513.949 102.2 512.849 97.8 510.649 94.8C508.516 91.7333 505.483 90.2 501.549 90.2C495.883 90.2 491.116 92.5333 487.249 97.2C483.449 101.867 480.416 107.333 478.149 113.6C476.349 118.667 475.149 123.6 474.549 128.4C474.016 133.2 473.749 137.333 473.749 140.8C473.749 146.6 474.816 151.033 476.949 154.1C479.149 157.1 482.216 158.6 486.149 158.6ZM557.045 161.8C552.979 161.8 549.445 160.967 546.445 159.3C543.445 157.633 541.245 156.1 539.845 154.7C539.179 154.033 538.612 153.533 538.145 153.2C537.679 152.867 537.245 152.7 536.845 152.7C535.779 152.7 534.779 153.633 533.845 155.5C532.912 157.3 532.179 159.133 531.645 161H529.345L537.345 129.4H539.645C539.312 131.4 539.145 133.167 539.145 134.7C539.145 138.9 539.979 142.833 541.645 146.5C543.379 150.167 545.679 153.1 548.545 155.3C551.412 157.5 554.512 158.6 557.845 158.6C563.445 158.6 567.712 157.433 570.645 155.1C573.579 152.767 575.045 149.333 575.045 144.8C575.045 142.133 574.379 139.967 573.045 138.3C571.712 136.567 569.679 134.867 566.945 133.2L555.345 126.1C551.279 123.7 548.312 121.167 546.445 118.5C544.579 115.833 543.645 112.333 543.645 108C543.645 101 545.645 95.7667 549.645 92.3C553.712 88.7667 559.012 87 565.545 87C567.945 87 570.312 87.6333 572.645 88.9C575.045 90.1667 576.979 91.4667 578.445 92.8C579.112 93.4 579.645 93.8333 580.045 94.1C580.445 94.3 580.879 94.4 581.345 94.4C582.479 94.4 583.512 93.6667 584.445 92.2C585.379 90.7333 586.045 89.2667 586.445 87.8H588.745L582.945 113.8H580.645C580.845 110.6 580.245 107.133 578.845 103.4C577.512 99.6667 575.579 96.5333 573.045 94C570.512 91.4667 567.712 90.2 564.645 90.2C561.245 90.2 558.345 90.8333 555.945 92.1C553.612 93.3667 551.879 95.0333 550.745 97.1C549.612 99.1 549.045 101.233 549.045 103.5C549.045 106.633 549.945 109.133 551.745 111C553.612 112.867 556.112 114.7 559.245 116.5L568.645 122C571.712 123.867 574.112 125.567 575.845 127.1C577.645 128.567 579.012 130.367 579.945 132.5C580.945 134.567 581.445 137.133 581.445 140.2C581.445 146.867 579.312 152.133 575.045 156C570.779 159.867 564.779 161.8 557.045 161.8ZM618.357 161.8C614.89 161.8 611.524 160.833 608.257 158.9C605.057 156.967 602.39 153.967 600.257 149.9C598.19 145.833 597.157 140.8 597.157 134.8C597.157 127.133 599.024 119.6 602.757 112.2C606.49 104.8 611.29 98.7667 617.157 94.1C623.09 89.3667 629.157 87 635.357 87C637.824 87 639.99 87.4667 641.857 88.4C643.724 89.3333 645.257 90.4 646.457 91.6L648.257 93.4C648.924 94.0667 649.424 94.5333 649.757 94.8C650.157 95 650.624 95.1 651.157 95.1C652.424 95.1 653.424 94.3 654.157 92.7C654.89 91.0333 655.39 89.4 655.657 87.8H657.957L651.557 118.4H649.257C649.324 117.067 649.357 114.967 649.357 112.1C649.357 109.767 649.024 106.933 648.357 103.6C647.757 100.267 646.657 97.5 645.057 95.3C642.524 91.9 639.157 90.2 634.957 90.2C631.024 90.2 627.424 91.4333 624.157 93.9C620.89 96.3 617.69 100.467 614.557 106.4C612.357 110.533 610.49 115.667 608.957 121.8C607.49 127.867 606.757 134.067 606.757 140.4C606.757 145.533 607.39 149.433 608.657 152.1C609.99 154.767 611.59 156.533 613.457 157.4C615.39 158.2 617.59 158.6 620.057 158.6C623.79 158.6 627.39 157.533 630.857 155.4C634.324 153.267 637.357 150.467 639.957 147C642.624 143.533 644.657 139.8 646.057 135.8L649.157 136.9C646.757 143.967 642.957 149.9 637.757 154.7C632.624 159.433 626.157 161.8 618.357 161.8ZM685.349 161.8C681.083 161.8 677.349 160.6 674.149 158.2C670.949 155.8 668.483 152.6 666.749 148.6C665.016 144.533 664.149 140.067 664.149 135.2C664.149 126.533 666.016 118.5 669.749 111.1C673.483 103.7 678.316 97.8333 684.249 93.5C690.183 89.1667 696.216 87 702.349 87C706.616 87 710.349 88.2333 713.549 90.7C716.749 93.1 719.216 96.3333 720.949 100.4C722.683 104.467 723.549 108.933 723.549 113.8C723.549 122.467 721.683 130.5 717.949 137.9C714.216 145.233 709.383 151.067 703.449 155.4C697.516 159.667 691.483 161.8 685.349 161.8ZM686.149 158.6C691.816 158.6 696.549 156.267 700.349 151.6C704.216 146.933 707.283 141.467 709.549 135.2C711.349 130.133 712.516 125.2 713.049 120.4C713.649 115.6 713.949 111.467 713.949 108C713.949 102.2 712.849 97.8 710.649 94.8C708.516 91.7333 705.483 90.2 701.549 90.2C695.883 90.2 691.116 92.5333 687.249 97.2C683.449 101.867 680.416 107.333 678.149 113.6C676.349 118.667 675.149 123.6 674.549 128.4C674.016 133.2 673.749 137.333 673.749 140.8C673.749 146.6 674.816 151.033 676.949 154.1C679.149 157.1 682.216 158.6 686.149 158.6ZM725.745 156.8H733.345C735.145 156.8 736.279 155.9 736.745 154.1L752.845 94.7L753.045 93.5C753.045 92.5 752.345 92 750.945 92H743.345L744.245 88.8H778.345C783.279 88.8 787.279 90.2 790.345 93C793.412 95.7333 794.945 99.6 794.945 104.6C794.945 108.6 793.712 112.333 791.245 115.8C788.845 119.2 785.379 121.967 780.845 124.1C776.379 126.167 771.212 127.2 765.345 127.2H753.145L745.845 154.1C745.779 154.367 745.745 154.733 745.745 155.2C745.745 155.8 745.879 156.233 746.145 156.5C746.479 156.7 747.012 156.8 747.745 156.8H758.945L758.145 160H724.945L725.745 156.8ZM767.445 124C770.045 124 772.545 123.367 774.945 122.1C777.412 120.833 779.479 119.067 781.145 116.8C782.479 114.933 783.512 112.767 784.245 110.3C784.979 107.767 785.345 105.267 785.345 102.8C785.345 99.1333 784.445 96.4333 782.645 94.7C780.912 92.9 778.745 92 776.145 92H765.345C763.545 92 762.412 92.9 761.945 94.7L754.045 124H767.445ZM821.775 161.8C817.508 161.8 813.775 160.6 810.575 158.2C807.375 155.8 804.908 152.6 803.175 148.6C801.442 144.533 800.575 140.067 800.575 135.2C800.575 126.533 802.442 118.5 806.175 111.1C809.908 103.7 814.742 97.8333 820.675 93.5C826.608 89.1667 832.642 87 838.775 87C843.042 87 846.775 88.2333 849.975 90.7C853.175 93.1 855.642 96.3333 857.375 100.4C859.108 104.467 859.975 108.933 859.975 113.8C859.975 122.467 858.108 130.5 854.375 137.9C850.642 145.233 845.808 151.067 839.875 155.4C833.942 159.667 827.908 161.8 821.775 161.8ZM822.575 158.6C828.242 158.6 832.975 156.267 836.775 151.6C840.642 146.933 843.708 141.467 845.975 135.2C847.775 130.133 848.942 125.2 849.475 120.4C850.075 115.6 850.375 111.467 850.375 108C850.375 102.2 849.275 97.8 847.075 94.8C844.942 91.7333 841.908 90.2 837.975 90.2C832.308 90.2 827.542 92.5333 823.675 97.2C819.875 101.867 816.842 107.333 814.575 113.6C812.775 118.667 811.575 123.6 810.975 128.4C810.442 133.2 810.175 137.333 810.175 140.8C810.175 146.6 811.242 151.033 813.375 154.1C815.575 157.1 818.642 158.6 822.575 158.6Z" fill="#161616"/>
</svg>
